<svg version="1.2" xmlns="http://www.w3.org/2000/svg" viewBox="0 0 1440 811" width="1440" height="811">
	<title>Logo (1)-svg-svg</title>
	<defs>
		<clipPath clipPathUnits="userSpaceOnUse" id="cp1">
			<path d="m184 127h469v550h-469z"/>
		</clipPath>
		<clipPath clipPathUnits="userSpaceOnUse" id="cp2">
			<path d="m415.96-35.59l435.93 435.94-415.77 415.77-435.94-435.92z"/>
		</clipPath>
		<clipPath clipPathUnits="userSpaceOnUse" id="cp3">
			<path d="m415.96-35.59l435.93 435.94-415.77 415.77-435.94-435.92z"/>
		</clipPath>
		<clipPath clipPathUnits="userSpaceOnUse" id="cp4">
			<path d="m273.27 302h155.73v181.95h-155.73z"/>
		</clipPath>
		<clipPath clipPathUnits="userSpaceOnUse" id="cp5">
			<path d="m432 296.45h196v187.5h-196z"/>
		</clipPath>
	</defs>
	<style>
		.s0 { fill: #000000 } 
		.s1 { fill: #ffffff } 
		.s2 { fill: #000000;stroke: #ffd492;stroke-width: 4.2 } 
	</style>
	<g id="Clip-Path: Clip-Path" clip-path="url(#cp1)">
		<g id="Clip-Path">
			<g id="Layer">
				<g id="Clip-Path: Clip-Path" clip-path="url(#cp2)">
					<g id="Clip-Path">
						<g id="Layer">
							<g id="Clip-Path: Clip-Path" clip-path="url(#cp3)">
								<g id="Clip-Path">
									<g id="Layer">
										<path id="Layer" class="s0" d="m652.8 589.9c-72.7 81.5-192.9 108-294.3 67.9q-6-2.4-11.8-5-5.9-2.7-11.6-5.6-5.7-2.9-11.3-6.1-5.5-3.2-11-6.6-5.4-3.5-10.7-7.2-5.2-3.6-10.3-7.6-5.1-3.9-10-8.1-4.9-4.1-9.5-8.5-4.7-4.4-9.2-9-4.5-4.6-8.8-9.4-4.2-4.8-8.3-9.8-4-5-7.8-10.1-3.8-5.2-7.4-10.6-3.5-5.3-6.8-10.8-3.3-5.5-6.4-11.2-3-5.6-5.8-11.4-2.8-5.8-5.3-11.7-2.5-5.9-4.7-12-2.2-6-4.2-12.1-1.9-6.1-3.6-12.3-1.6-6.2-3-12.5-1.4-6.3-2.4-12.6-1.1-6.3-1.9-12.7-0.8-6.4-1.3-12.8-0.4-6.4-0.6-12.8-0.2-6.4-0.1-12.9 0.1-6.4 0.5-12.8 0.5-6.4 1.2-12.8 0.7-6.4 1.7-12.7 1-6.3 2.3-12.6 1.3-6.3 2.9-12.5 1.6-6.3 3.5-12.4c62-198.3 313.8-261.5 456-106.8-5.5-4.5-17.5-14.3-23-18.3l-20.1-13.4q-21.9-12.7-45.7-21.3-23.9-8.6-48.8-12.9-8.7-1.4-17.5-2.3-8.8-0.8-17.6-1.1-8.8-0.2-17.6 0.1-8.8 0.4-17.6 1.3-8.7 1-17.4 2.5-8.7 1.5-17.3 3.6-8.5 2.1-16.9 4.8-8.4 2.7-16.6 5.9-8.2 3.3-16.2 7-7.9 3.8-15.6 8.1-7.7 4.4-15.1 9.2-7.4 4.8-14.4 10.1-7.1 5.3-13.7 11.1-6.7 5.7-13 11.9-6.2 6.3-12 12.9-5.9 6.6-11.2 13.6-3 3.9-5.9 7.9-2.8 4.1-5.5 8.2-2.6 4.1-5.1 8.4-2.6 4.2-4.9 8.6-2.3 4.3-4.5 8.7-2.2 4.4-4.2 8.9-2 4.5-3.9 9.1-1.8 4.6-3.4 9.2-1.7 4.7-3.2 9.4-1.5 4.7-2.8 9.4-1.3 4.8-2.4 9.6-1.1 4.8-2 9.6-1 4.9-1.7 9.7-0.7 4.9-1.3 9.8-0.6 4.9-0.9 9.8-0.4 4.9-0.6 9.8-0.2 5-0.1 9.9 0 4.9 0.2 9.8 0.2 5 0.5 9.9 0.4 4.9 1 9.8 0.6 4.9 1.3 9.8 0.8 4.8 1.7 9.7 1 4.8 2.1 9.6 1.1 4.8 2.5 9.5 1.3 4.8 2.8 9.5 1.5 4.7 3.1 9.3 1.7 4.7 3.6 9.2 1.8 4.6 3.8 9.1 2.1 4.5 4.2 8.9 2.2 4.4 4.6 8.7 2.4 4.4 4.9 8.6 2.5 4.2 5.2 8.4 2.6 3.9 5.3 7.7 2.8 3.8 5.6 7.6 2.9 3.7 5.9 7.3 3 3.6 6.1 7.1 3.1 3.5 6.4 6.9 3.2 3.4 6.6 6.7 3.4 3.3 6.9 6.4 3.4 3.2 7 6.2 3.6 3 7.3 5.9 3.7 2.9 7.5 5.7 3.8 2.7 7.7 5.4 3.9 2.6 7.9 5 4 2.5 8.1 4.9 4.1 2.3 8.3 4.5 4.1 2.2 8.3 4.2 4.3 2 8.6 3.9 4.3 1.9 8.7 3.6 4.3 1.7 8.8 3.3 4.4 1.6 8.9 3 4.5 1.4 9 2.6 4.5 1.3 9.1 2.3 4.6 1.1 9.2 2 4.6 1 9.2 1.7 4.7 0.8 9.3 1.3 4.7 0.6 9.4 1 4.7 0.4 9.4 0.7 4.7 0.2 9.4 0.3 4.7 0.1 9.4 0 4.6-0.1 9.3-0.4 4.7-0.2 9.4-0.7 4.7-0.4 9.4-1 4.6-0.6 9.3-1.4 24.9-4.2 48.7-12.8 23.8-8.7 45.8-21.4c5.8-3.7 14.3-9.6 20-13.3 5.8-3.8 17.4-14.1 23-18.3z"/>
									</g>
								</g>
							</g>
						</g>
					</g>
				</g>
			</g>
		</g>
	</g>
	<g id="Clip-Path: Clip-Path" clip-path="url(#cp4)">
		<g id="Clip-Path">
			<g id="Layer">
				<path id="Layer" class="s1" d="m428.8 431.6l-17.5 35.6-47.5-94.5-55.2 111h-35.3l90.3-181.6z"/>
			</g>
		</g>
	</g>
	<g id="Clip-Path: Clip-Path" clip-path="url(#cp5)">
		<g id="Clip-Path">
			<g id="Layer">
				<path id="Layer" class="s0" d="m627.9 483.7h-120.3l-75-151.7 17.8-35.3 76.9 155.5h54.2l13.4-31.6z"/>
			</g>
		</g>
	</g>
	<path id="Layer" fill-rule="evenodd" class="s2" d="m663.8 376.4h6.7l21.1 31.7 21.2-31.7h6.6v58.1h-6.5v-47l-21.2 31.1h-0.3l-21.2-31v46.9h-6.4zm95.3 59q-5.4 0-9.8-1.6-4.5-1.6-7.7-4.8-3.2-3.2-4.9-7.9-1.8-4.7-1.8-10.9v-33.8h6.6v33.4q0 9.5 4.7 14.5 4.7 5.1 13.1 5.1 8 0 12.8-4.8 4.7-4.8 4.7-14.4v-33.8h6.5v33.3q0 6.4-1.7 11.2-1.7 4.8-4.9 8.1-3.2 3.2-7.7 4.8-4.4 1.6-9.9 1.6zm59.7 0q-7 0-12.8-2.3-5.7-2.3-10.9-7l4-4.8q4.6 4.1 9.2 6.1 4.7 2.1 10.7 2.1 5.9 0 9.5-2.8 3.5-2.8 3.5-7.1v-0.2q0-2-0.7-3.6-0.6-1.6-2.3-2.9-1.7-1.4-4.6-2.4-2.9-1.1-7.5-2.1-5-1.1-8.7-2.5-3.7-1.4-6.1-3.4-2.4-2-3.6-4.6-1.1-2.7-1.1-6.3v-0.1q0-3.5 1.4-6.4 1.4-2.8 4-5 2.5-2.1 6-3.3 3.5-1.2 7.7-1.2 6.4 0 11.1 1.8 4.8 1.8 9.3 5.3l-3.8 5.1q-4.1-3.3-8.2-4.8-4.1-1.5-8.6-1.5-5.7 0-9.1 2.7-3.3 2.7-3.3 6.7v0.1q0 2.1 0.7 3.7 0.7 1.7 2.4 3 1.7 1.4 4.8 2.5 3.1 1.1 7.9 2.1 9.7 2.2 14.3 6 4.6 3.8 4.6 10.5v0.1q0 3.8-1.5 6.8-1.5 3-4.1 5.2-2.6 2.1-6.2 3.3-3.7 1.2-8 1.2zm33.2-59h6.6v52.1h32.7v6h-39.3zm51.6 0h6.6v58.1h-6.6zm23.6 0h6.6l21.2 31.7 21.2-31.7h6.6v58.1h-6.5v-47l-21.2 31.1h-0.4l-21.1-31v46.9h-6.4zm97 0h6.5v52.1h32.7v6h-39.2zm78 59.1q-6.7 0-12.1-2.4-5.4-2.4-9.4-6.5-3.8-4.1-6-9.5-2.1-5.5-2.1-11.4v-0.2q0-6 2.2-11.5 2.2-5.4 6-9.6 4-4.1 9.4-6.5 5.5-2.5 12.1-2.5 6.7 0 12.1 2.5 5.5 2.3 9.3 6.5 4 4.1 6.1 9.5 2.1 5.4 2.1 11.4v0.2q0 6-2.2 11.4-2.1 5.5-6 9.6-3.9 4.1-9.4 6.6-5.5 2.4-12.1 2.4zm0.1-6q5 0 9.2-1.9 4.2-1.9 7.2-5.1 3-3.2 4.7-7.6 1.7-4.3 1.7-9.2v-0.2q0-5-1.7-9.3-1.7-4.4-4.8-7.6-3.1-3.3-7.3-5.2-4.1-1.9-9.1-1.9-5 0-9.2 1.9-4.2 1.8-7.2 5.1-3 3.2-4.7 7.5-1.7 4.3-1.7 9.3v0.2q0 5 1.7 9.3 1.7 4.4 4.8 7.6 3.1 3.3 7.3 5.2 4.2 1.9 9.1 1.9zm70 6q-6.3 0-11.6-2.3-5.3-2.3-9.2-6.3-3.9-4.1-6.1-9.5-2.2-5.5-2.2-11.7v-0.2q0-6.2 2.2-11.6 2.2-5.5 6.1-9.6 3.9-4.1 9.3-6.5 5.4-2.4 11.8-2.4 3.9 0 7.2 0.7 3.2 0.7 5.9 1.9 2.7 1.2 5 2.9 2.4 1.7 4.5 3.7l-4.4 4.9q-3.8-3.5-8.1-5.7-4.2-2.3-10.2-2.3-4.8 0-8.9 1.8-4.2 1.9-7.2 5.1-3 3.2-4.7 7.6-1.7 4.3-1.7 9.3v0.2q0 5 1.7 9.4 1.7 4.4 4.7 7.6 3 3.2 7.2 5.1 4.1 1.9 8.9 1.9 6 0 10.3-2.2 4.3-2.2 8.4-6.2l4.4 4.2q-2.3 2.4-4.7 4.2-2.5 1.9-5.3 3.2-2.8 1.3-6.1 2.1-3.2 0.7-7.2 0.7zm56.5-59.5h6.2l26.5 58.5h-7.1l-6.8-15.3h-31.6l-6.9 15.3h-6.7zm16.2 37.3l-13.2-29.6-13.3 29.6zm27.9-36.8h6.5v52h32.7v6.1h-39.2z"/>
	<g id="Layer">
		<g id="Layer">
			<g id="Layer">
				<path id="Layer" class="s0" d="m663.8 376.4h6.7l21.1 31.7 21.2-31.7h6.6v58.1h-6.5v-47l-21.2 31.1h-0.3l-21.2-31.1v47h-6.4z"/>
			</g>
		</g>
	</g>
	<g id="Layer">
		<g id="Layer">
			<g id="Layer">
				<path id="Layer" class="s0" d="m759.1 435.4q-5.4 0-9.8-1.6-4.5-1.6-7.7-4.8-3.2-3.2-4.9-7.9-1.8-4.7-1.8-10.9v-33.8h6.6v33.4q0 9.5 4.7 14.5 4.7 5.1 13.1 5.1 8 0 12.8-4.8 4.7-4.8 4.7-14.4v-33.8h6.5v33.3q0 6.4-1.7 11.2-1.7 4.8-4.9 8.1-3.2 3.2-7.7 4.8-4.4 1.6-9.9 1.6z"/>
			</g>
		</g>
	</g>
	<g id="Layer">
		<g id="Layer">
			<g id="Layer">
				<path id="Layer" class="s0" d="m818.8 435.4q-7 0-12.8-2.3-5.7-2.3-10.9-7l4-4.8q4.6 4.1 9.2 6.1 4.7 2.1 10.7 2.1 5.9 0 9.4-2.8 3.6-2.8 3.6-7.1v-0.2q0-2-0.7-3.6-0.6-1.6-2.3-2.9-1.7-1.3-4.6-2.4-3-1.1-7.5-2.1-5-1.1-8.7-2.5-3.7-1.4-6.1-3.4-2.4-2-3.6-4.7-1.1-2.6-1.1-6.2v-0.1q0-3.4 1.4-6.4 1.4-2.9 4-5 2.5-2.1 6-3.3 3.5-1.2 7.7-1.2 6.4 0 11.1 1.8 4.8 1.8 9.3 5.3l-3.8 5.1q-4.1-3.3-8.2-4.8-4.1-1.5-8.6-1.5-5.7 0-9.1 2.7-3.3 2.7-3.3 6.7v0.1q0 2.1 0.7 3.7 0.7 1.6 2.4 3 1.7 1.4 4.8 2.5 3.1 1.1 7.9 2.1 9.7 2.2 14.3 6 4.6 3.8 4.6 10.5v0.1q0 3.8-1.5 6.8-1.5 3-4.1 5.2-2.6 2.1-6.3 3.3-3.6 1.2-7.9 1.2z"/>
			</g>
		</g>
	</g>
	<g id="Layer">
		<g id="Layer">
			<g id="Layer">
				<path id="Layer" class="s0" d="m852 376.4h6.6v52.1h32.6v6h-39.2z"/>
			</g>
		</g>
	</g>
	<g id="Layer">
		<g id="Layer">
			<g id="Layer">
				<path id="Layer" class="s0" d="m903.6 376.4h6.6v58.1h-6.6z"/>
			</g>
		</g>
	</g>
	<g id="Layer">
		<g id="Layer">
			<g id="Layer">
				<path id="Layer" class="s0" d="m927.2 376.4h6.6l21.2 31.7 21.2-31.7h6.6v58.1h-6.6v-47l-21.1 31.1h-0.4l-21.1-31.1v47h-6.4z"/>
			</g>
		</g>
	</g>
	<g id="Layer">
		<g id="Layer">
			<g id="Layer">
			</g>
		</g>
	</g>
	<g id="Layer">
		<g id="Layer">
			<g id="Layer">
				<path id="Layer" class="s0" d="m1024.2 376.4h6.5v52.1h32.7v6h-39.2z"/>
			</g>
		</g>
	</g>
	<g id="Layer">
		<g id="Layer">
			<g id="Layer">
				<path id="Layer" fill-rule="evenodd" class="s0" d="m1102.2 435.5q-6.7 0-12.1-2.4-5.4-2.4-9.4-6.5-3.8-4.1-6-9.5-2.1-5.5-2.1-11.5v-0.1q0-6 2.2-11.5 2.1-5.4 6-9.6 3.9-4.1 9.4-6.5 5.5-2.5 12.1-2.5 6.7 0 12.1 2.4 5.5 2.5 9.3 6.6 4 4.1 6.1 9.5 2.1 5.4 2.1 11.4v0.2q0 6-2.2 11.4-2.1 5.5-6 9.6-3.9 4.1-9.4 6.6-5.5 2.4-12.1 2.4zm0.1-6q5 0 9.2-1.9 4.2-1.9 7.2-5.1 3-3.2 4.7-7.5 1.7-4.4 1.7-9.4v-0.1q0-5-1.7-9.4-1.7-4.3-4.8-7.6-3.1-3.2-7.3-5.1-4.1-1.9-9.1-1.9-5 0-9.2 1.9-4.2 1.8-7.2 5.1-3 3.2-4.7 7.5-1.7 4.3-1.7 9.3v0.2q0 5 1.7 9.3 1.7 4.4 4.8 7.6 3.1 3.3 7.3 5.2 4.2 1.9 9.1 1.9z"/>
			</g>
		</g>
	</g>
	<g id="Layer">
		<g id="Layer">
			<g id="Layer">
				<path id="Layer" class="s0" d="m1172.3 435.5q-6.3 0-11.6-2.3-5.3-2.3-9.2-6.3-3.9-4.1-6.1-9.5-2.2-5.5-2.2-11.8v-0.1q0-6.2 2.2-11.6 2.2-5.5 6.1-9.6 3.9-4.1 9.3-6.5 5.4-2.4 11.8-2.4 4 0 7.1 0.7 3.2 0.7 6 1.9 2.7 1.2 5 2.9 2.4 1.7 4.5 3.7l-4.5 4.9q-3.7-3.5-8-5.8-4.2-2.2-10.2-2.2-4.8 0-8.9 1.8-4.2 1.8-7.2 5.1-3 3.2-4.7 7.6-1.7 4.3-1.7 9.3v0.2q0 5 1.7 9.4 1.7 4.4 4.7 7.6 3 3.2 7.2 5.1 4.1 1.9 8.9 1.9 6 0 10.3-2.2 4.3-2.2 8.4-6.2l4.4 4.2q-2.3 2.3-4.7 4.2-2.5 1.9-5.3 3.2-2.8 1.3-6.1 2.1-3.2 0.7-7.2 0.7z"/>
			</g>
		</g>
	</g>
	<g id="Layer">
		<g id="Layer">
			<g id="Layer">
				<path id="Layer" fill-rule="evenodd" class="s0" d="m1228.9 376h6.1l26.5 58.5h-7.1l-6.8-15.3h-31.6l-6.9 15.3h-6.7zm16.2 37.3l-13.2-29.6-13.3 29.6z"/>
			</g>
		</g>
	</g>
	<g id="Layer">
		<g id="Layer">
			<g id="Layer">
				<path id="Layer" class="s0" d="m1272.9 376.4h6.6v52.1h32.7v6h-39.3z"/>
			</g>
		</g>
	</g>
</svg>